<svg width="50" height="76" viewBox="0 0 50 76" fill="none" xmlns="http://www.w3.org/2000/svg">
<path d="M12.8474 36.3984C12.8474 43.9922 17.6989 49.4414 24.9059 49.4414C32.1481 49.4414 36.9645 43.9922 36.9645 36.3984V13.793C36.9645 6.1992 32.1481 0.749985 24.9059 0.749985C17.6989 0.749985 12.8474 6.1992 12.8474 13.793V36.3984ZM16.9606 36.3984V13.793C16.9606 8.48436 20.0544 4.7578 24.9059 4.7578C29.7575 4.7578 32.8513 8.48436 32.8513 13.793V36.3984C32.8513 41.7422 29.7575 45.4336 24.9059 45.4336C20.0544 45.4336 16.9606 41.7422 16.9606 36.3984ZM0.718445 37.7695C0.718445 51.0586 9.54266 60.4453 22.8669 61.3242V70.9219H9.1911C8.0661 70.9219 7.15204 71.8359 7.15204 72.9609C7.15204 74.1211 8.0661 75.0351 9.1911 75.0351H40.6208C41.7458 75.0351 42.6599 74.1211 42.6599 72.9609C42.6599 71.8359 41.7458 70.9219 40.6208 70.9219H26.9802V61.3242C40.2692 60.4453 49.0934 51.0586 49.0934 37.7695V30.914C49.0934 29.7539 48.1794 28.8398 47.0544 28.8398C45.8942 28.8398 44.9802 29.7539 44.9802 30.914V37.6289C44.9802 49.4414 37.1052 57.5273 24.9059 57.5273C12.7067 57.5273 4.83173 49.4414 4.83173 37.6289V30.914C4.83173 29.7539 3.91766 28.8398 2.75751 28.8398C1.63251 28.8398 0.718445 29.7539 0.718445 30.914V37.7695Z" fill="#64D2FF"/>
</svg>
